<?xml version="1.0" encoding="iso-8859-1"?>
<!-- Generator: Adobe Illustrator 19.0.0, SVG Export Plug-In . SVG Version: 6.00 Build 0)  -->
<svg version="1.1" id="Capa_1" xmlns="http://www.w3.org/2000/svg" xmlns:xlink="http://www.w3.org/1999/xlink" x="0px" y="0px"
	 viewBox="0 0 512.001 512.001" style="enable-background:new 0 0 512.001 512.001;" xml:space="preserve">
<g>
	<g>
		<path d="M493.125,276.334c-7.69-7.095-17.251-12.115-27.652-14.517l-0.283-0.065L351.096,240.02l-93.85-169.693
			c-13.84-25.024-37.777-42.982-65.676-49.268c-6.491-1.46-13.319,0.669-17.825,5.561c-4.506,4.891-6.071,11.873-4.083,18.219
			l53.487,170.784l-117.27-21.459l-59.444-63.226c-3.685-3.92-8.407-6.619-13.654-7.802c-9.042-2.038-18.352,0.653-24.906,7.207
			c-6.554,6.555-9.248,15.865-7.206,24.906l10.177,45.077l-7.729,34.54c-1.905,6.943-0.93,14.44,2.709,20.669
			c3.75,6.416,10.06,11.03,17.312,12.657l0.234,0.053l452.945,86.369c1.885,0.402,3.772,0.597,5.638,0.597
			c10.074,0,19.479-5.684,24.097-15.073c1.805-3.669,3.175-7.555,4.072-11.543C514.395,309.635,508.042,290.098,493.125,276.334z"/>
	</g>
</g>
<g>
	<g>
		<path d="M496.978,414.442H17.326c-8.251,0-14.94,6.689-14.94,14.94c0,8.251,6.689,14.94,14.94,14.94h479.652
			c8.251,0,14.94-6.689,14.94-14.94C511.918,421.132,505.229,414.442,496.978,414.442z"/>
	</g>
</g>
<g>
	<g>
		<path d="M497.061,461.514H17.408c-8.251,0-14.94,6.689-14.94,14.94c0,8.251,6.689,14.94,14.94,14.94h479.652
			c8.251,0,14.94-6.689,14.94-14.94C512.001,468.203,505.312,461.514,497.061,461.514z"/>
	</g>
</g>
<g>
</g>
<g>
</g>
<g>
</g>
<g>
</g>
<g>
</g>
<g>
</g>
<g>
</g>
<g>
</g>
<g>
</g>
<g>
</g>
<g>
</g>
<g>
</g>
<g>
</g>
<g>
</g>
<g>
</g>
</svg>
