<?xml version="1.0" encoding="iso-8859-1"?>
<!-- Generator: Adobe Illustrator 19.0.0, SVG Export Plug-In . SVG Version: 6.00 Build 0)  -->
<svg version="1.1" id="Capa_1" xmlns="http://www.w3.org/2000/svg" xmlns:xlink="http://www.w3.org/1999/xlink" x="0px" y="0px"
	 viewBox="0 0 512 512" style="enable-background:new 0 0 512 512;" xml:space="preserve">
<g>
	<g>
		<path d="M510.796,71.26c-1.167-3.938-2.803-7.74-4.858-11.299c-9.764-16.911-27.766-27.006-48.157-27.006
			c-10.511,0-20.991,2.808-30.308,8.12l-0.253,0.145l-99.05,61.688L143.259,41.554c-27.269-9.048-57.178-5.998-82.057,8.366
			c-5.788,3.34-9.38,9.567-9.376,16.249c0.005,6.683,3.606,12.905,9.398,16.237l155.849,89.661l-101.208,64.055l-86.968-6.184
			c-5.391-0.382-10.713,0.841-15.397,3.542c-8.067,4.652-13.105,12.986-13.478,22.29c-0.373,9.303,3.981,18.013,11.648,23.298
			l38.227,26.349l17.825,30.77c3.322,6.425,9.149,11.296,16.081,13.415c2.569,0.786,5.223,1.172,7.868,1.172
			c4.711,0,9.398-1.228,13.537-3.622l0.208-0.121l393.288-244.825C509.366,95.885,514.336,83.203,510.796,71.26z"/>
	</g>
</g>
<g>
	<g>
		<path d="M496.907,401.733H15.011c-8.29,0-15.01,6.721-15.01,15.01c0,8.29,6.721,15.01,15.01,15.01h481.895
			c8.29,0,15.01-6.721,15.01-15.01C511.917,408.454,505.197,401.733,496.907,401.733z"/>
	</g>
</g>
<g>
	<g>
		<path d="M496.99,449.025H15.095c-8.29,0-15.01,6.721-15.01,15.01c0,8.29,6.721,15.01,15.01,15.01H496.99
			c8.29,0,15.01-6.721,15.01-15.01C512,455.745,505.28,449.025,496.99,449.025z"/>
	</g>
</g>
<g>
</g>
<g>
</g>
<g>
</g>
<g>
</g>
<g>
</g>
<g>
</g>
<g>
</g>
<g>
</g>
<g>
</g>
<g>
</g>
<g>
</g>
<g>
</g>
<g>
</g>
<g>
</g>
<g>
</g>
</svg>
